<?xml version="1.0" standalone="no"?>
<!DOCTYPE svg PUBLIC "-//W3C//DTD SVG 20010904//EN"
 "http://www.w3.org/TR/2001/REC-SVG-20010904/DTD/svg10.dtd">
<svg version="1.0" xmlns="http://www.w3.org/2000/svg"
 width="500.000000pt" height="500.000000pt" viewBox="0 0 500.000000 500.000000"
 preserveAspectRatio="xMidYMid meet">

<g transform="translate(0.000000,500.000000) scale(0.100000,-0.100000)"
fill="#000000" stroke="none">
<path d="M0 2500 l0 -2500 2500 0 2500 0 0 2500 0 2500 -2500 0 -2500 0 0
-2500z m1260 1154 l0 -26 31 26 c24 20 41 26 80 26 64 0 102 -20 123 -64 14
-30 16 -84 16 -425 l0 -391 -75 0 -75 0 0 370 0 370 -50 0 -50 0 0 -370 0
-370 -70 0 -70 0 0 440 0 440 70 0 c69 0 70 -1 70 -26z m688 -41 l-3 -68 -97
-3 -98 -3 0 -109 c0 -61 3 -110 6 -110 3 0 45 20 93 45 48 25 90 45 94 45 5 0
7 -35 5 -77 l-3 -78 -97 -50 -98 -50 0 -107 0 -107 98 -3 97 -3 3 -67 3 -68
-176 0 -175 0 0 373 c0 204 5 390 10 412 5 24 21 51 40 68 30 27 32 27 166 27
l135 0 -3 -67z m472 -3 l0 -70 -70 0 -70 0 0 -370 0 -370 -70 0 -70 0 0 370 0
370 -70 0 -70 0 0 70 0 70 210 0 210 0 0 -70z m408 3 l-3 -68 -97 -3 -98 -3 0
-109 c0 -61 3 -110 6 -110 3 0 45 20 93 45 48 25 90 45 94 45 5 0 7 -35 5 -77
l-3 -78 -97 -50 -98 -50 0 -177 0 -178 -75 0 -75 0 0 373 c0 204 5 390 10 412
5 24 21 51 40 68 30 27 32 27 166 27 l135 0 -3 -67z m212 -303 l0 -369 98 -3
97 -3 3 -67 3 -68 -176 0 -175 0 0 440 0 440 75 0 75 0 0 -370z m410 -70 l0
-440 -75 0 -75 0 0 440 0 440 75 0 75 0 0 -440z m214 385 c9 -30 23 -81 33
-112 9 -32 18 -53 20 -47 2 6 16 56 32 110 l28 99 75 3 75 3 -60 -215 -60
-215 61 -219 c34 -120 62 -222 62 -225 0 -4 -33 -7 -73 -7 l-74 0 -34 127 -35
126 -34 -122 c-19 -68 -39 -125 -45 -128 -7 -2 -41 -3 -76 -1 l-65 3 63 223
63 222 -56 198 c-30 108 -57 205 -60 215 -5 15 3 17 70 17 l75 0 15 -55z
m-1375 -1231 c44 -37 54 -81 50 -225 -5 -159 -8 -164 -144 -232 l-105 -52 0
-102 0 -102 123 -3 122 -3 3 -67 3 -68 -201 0 -202 0 4 193 c4 243 2 238 141
309 l102 53 3 93 3 92 -51 0 -50 0 0 -37 c0 -37 -3 -39 -69 -75 -38 -20 -72
-34 -75 -30 -9 9 -6 143 4 187 5 24 21 51 40 68 29 26 34 27 149 27 114 0 121
-1 150 -26z m727 -8 l34 -34 0 -372 0 -372 -34 -34 -34 -34 -120 0 c-131 0
-155 9 -187 70 -22 43 -22 697 0 740 32 61 56 70 187 70 l120 0 34 -34z m-446
-776 l0 -70 -75 0 -75 0 0 70 0 70 75 0 75 0 0 -70z"/>
<path d="M2810 1980 l0 -300 50 0 50 0 0 300 0 300 -50 0 -50 0 0 -300z"/>
</g>
</svg>
